<mxfile host="app.diagrams.net" modified="2023-11-05T20:09:05.428Z" agent="Mozilla/5.0 (Windows NT 10.0; Win64; x64) AppleWebKit/537.36 (KHTML, like Gecko) Chrome/118.0.0.0 Safari/537.36" etag="QyrZzZh4_yg_GImiwRRB" version="22.0.8" type="device">
  <diagram id="C5RBs43oDa-KdzZeNtuy" name="Page-1">
    <mxGraphModel dx="1941" dy="578" grid="1" gridSize="10" guides="1" tooltips="1" connect="1" arrows="1" fold="1" page="1" pageScale="1" pageWidth="827" pageHeight="1169" math="0" shadow="0">
      <root>
        <mxCell id="WIyWlLk6GJQsqaUBKTNV-0" />
        <mxCell id="WIyWlLk6GJQsqaUBKTNV-1" parent="WIyWlLk6GJQsqaUBKTNV-0" />
        <mxCell id="WIyWlLk6GJQsqaUBKTNV-2" value="" style="rounded=0;html=1;jettySize=auto;orthogonalLoop=1;fontSize=11;endArrow=none;endFill=0;endSize=8;strokeWidth=1;shadow=0;labelBackgroundColor=none;edgeStyle=orthogonalEdgeStyle;entryX=0;entryY=0.5;entryDx=0;entryDy=0;exitX=1;exitY=0.5;exitDx=0;exitDy=0;fontColor=default;strokeColor=#E07A5F;" parent="WIyWlLk6GJQsqaUBKTNV-1" source="WIyWlLk6GJQsqaUBKTNV-3" target="WIyWlLk6GJQsqaUBKTNV-7" edge="1">
          <mxGeometry relative="1" as="geometry">
            <mxPoint x="-615.25" y="29.999999999999886" as="sourcePoint" />
            <mxPoint x="-466.25" y="29.5" as="targetPoint" />
          </mxGeometry>
        </mxCell>
        <mxCell id="2eCOgMGtBzsQvOvCT4ah-16" value="0/N" style="edgeLabel;html=1;align=center;verticalAlign=middle;resizable=0;points=[];labelBackgroundColor=none;fontColor=#393C56;" parent="WIyWlLk6GJQsqaUBKTNV-2" vertex="1" connectable="0">
          <mxGeometry x="-0.5" relative="1" as="geometry">
            <mxPoint x="-91" y="1" as="offset" />
          </mxGeometry>
        </mxCell>
        <mxCell id="2eCOgMGtBzsQvOvCT4ah-32" value="1/1" style="edgeLabel;html=1;align=center;verticalAlign=middle;resizable=0;points=[];labelBackgroundColor=none;fontColor=#393C56;" parent="WIyWlLk6GJQsqaUBKTNV-2" vertex="1" connectable="0">
          <mxGeometry x="0.8107" relative="1" as="geometry">
            <mxPoint as="offset" />
          </mxGeometry>
        </mxCell>
        <mxCell id="2eCOgMGtBzsQvOvCT4ah-80" value="0/N" style="edgeLabel;html=1;align=center;verticalAlign=middle;resizable=0;points=[];labelBackgroundColor=none;fontColor=#393C56;" parent="WIyWlLk6GJQsqaUBKTNV-2" vertex="1" connectable="0">
          <mxGeometry x="-0.8588" y="1" relative="1" as="geometry">
            <mxPoint as="offset" />
          </mxGeometry>
        </mxCell>
        <mxCell id="2eCOgMGtBzsQvOvCT4ah-33" style="edgeStyle=orthogonalEdgeStyle;rounded=0;orthogonalLoop=1;jettySize=auto;html=1;exitX=0.5;exitY=1;exitDx=0;exitDy=0;entryX=0.5;entryY=0;entryDx=0;entryDy=0;labelBackgroundColor=none;fontColor=default;endArrow=none;endFill=0;strokeColor=#E07A5F;" parent="WIyWlLk6GJQsqaUBKTNV-1" edge="1">
          <mxGeometry relative="1" as="geometry">
            <mxPoint x="-770" y="50" as="sourcePoint" />
            <mxPoint x="-770" y="212.5" as="targetPoint" />
          </mxGeometry>
        </mxCell>
        <mxCell id="2eCOgMGtBzsQvOvCT4ah-34" value="0/N" style="edgeLabel;html=1;align=center;verticalAlign=middle;resizable=0;points=[];labelBackgroundColor=none;fontColor=#393C56;" parent="2eCOgMGtBzsQvOvCT4ah-33" vertex="1" connectable="0">
          <mxGeometry x="0.6366" y="1" relative="1" as="geometry">
            <mxPoint as="offset" />
          </mxGeometry>
        </mxCell>
        <mxCell id="2eCOgMGtBzsQvOvCT4ah-35" value="1/1" style="edgeLabel;html=1;align=center;verticalAlign=middle;resizable=0;points=[];labelBackgroundColor=none;fontColor=#393C56;" parent="2eCOgMGtBzsQvOvCT4ah-33" vertex="1" connectable="0">
          <mxGeometry x="-0.8144" y="-2" relative="1" as="geometry">
            <mxPoint as="offset" />
          </mxGeometry>
        </mxCell>
        <mxCell id="2eCOgMGtBzsQvOvCT4ah-39" value="como origen" style="edgeLabel;html=1;align=center;verticalAlign=middle;resizable=0;points=[];labelBackgroundColor=none;fontColor=#393C56;" parent="2eCOgMGtBzsQvOvCT4ah-33" vertex="1" connectable="0">
          <mxGeometry x="-0.186" y="-1" relative="1" as="geometry">
            <mxPoint y="6" as="offset" />
          </mxGeometry>
        </mxCell>
        <mxCell id="WIyWlLk6GJQsqaUBKTNV-3" value="AIRPORTS" style="rounded=1;whiteSpace=wrap;html=1;fontSize=12;glass=0;strokeWidth=1;shadow=0;labelBackgroundColor=none;fillColor=#F2CC8F;strokeColor=#E07A5F;fontColor=#393C56;" parent="WIyWlLk6GJQsqaUBKTNV-1" vertex="1">
          <mxGeometry x="-790" y="10" width="120" height="40" as="geometry" />
        </mxCell>
        <mxCell id="WIyWlLk6GJQsqaUBKTNV-7" value="CURRENCIES" style="rounded=1;whiteSpace=wrap;html=1;fontSize=12;glass=0;strokeWidth=1;shadow=0;labelBackgroundColor=none;fillColor=#F2CC8F;strokeColor=#E07A5F;fontColor=#393C56;" parent="WIyWlLk6GJQsqaUBKTNV-1" vertex="1">
          <mxGeometry x="-392.25" y="10" width="120" height="40" as="geometry" />
        </mxCell>
        <mxCell id="2eCOgMGtBzsQvOvCT4ah-19" style="edgeStyle=orthogonalEdgeStyle;rounded=0;orthogonalLoop=1;jettySize=auto;html=1;exitX=1;exitY=0.5;exitDx=0;exitDy=0;entryX=0;entryY=0.5;entryDx=0;entryDy=0;labelBackgroundColor=none;fontColor=default;endArrow=none;endFill=0;strokeColor=#E07A5F;" parent="WIyWlLk6GJQsqaUBKTNV-1" source="WIyWlLk6GJQsqaUBKTNV-11" target="2eCOgMGtBzsQvOvCT4ah-4" edge="1">
          <mxGeometry relative="1" as="geometry" />
        </mxCell>
        <mxCell id="2eCOgMGtBzsQvOvCT4ah-20" value="0/1" style="edgeLabel;html=1;align=center;verticalAlign=middle;resizable=0;points=[];labelBackgroundColor=none;fontColor=#393C56;" parent="2eCOgMGtBzsQvOvCT4ah-19" vertex="1" connectable="0">
          <mxGeometry x="0.8827" relative="1" as="geometry">
            <mxPoint x="-12" as="offset" />
          </mxGeometry>
        </mxCell>
        <mxCell id="2eCOgMGtBzsQvOvCT4ah-22" value="0/N" style="edgeLabel;html=1;align=center;verticalAlign=middle;resizable=0;points=[];labelBackgroundColor=none;fontColor=#393C56;" parent="2eCOgMGtBzsQvOvCT4ah-19" vertex="1" connectable="0">
          <mxGeometry x="-0.9183" y="-1" relative="1" as="geometry">
            <mxPoint x="10" as="offset" />
          </mxGeometry>
        </mxCell>
        <mxCell id="WIyWlLk6GJQsqaUBKTNV-11" value="FLIGHTS" style="rounded=1;whiteSpace=wrap;html=1;fontSize=12;glass=0;strokeWidth=1;shadow=0;labelBackgroundColor=none;fillColor=#F2CC8F;strokeColor=#E07A5F;fontColor=#393C56;" parent="WIyWlLk6GJQsqaUBKTNV-1" vertex="1">
          <mxGeometry x="-392.25" y="212.5" width="120" height="40" as="geometry" />
        </mxCell>
        <mxCell id="2eCOgMGtBzsQvOvCT4ah-41" style="edgeStyle=orthogonalEdgeStyle;rounded=0;orthogonalLoop=1;jettySize=auto;html=1;exitX=1;exitY=0.5;exitDx=0;exitDy=0;entryX=0;entryY=0.5;entryDx=0;entryDy=0;labelBackgroundColor=none;fontColor=default;endArrow=none;endFill=0;strokeColor=#E07A5F;" parent="WIyWlLk6GJQsqaUBKTNV-1" source="WIyWlLk6GJQsqaUBKTNV-12" target="WIyWlLk6GJQsqaUBKTNV-11" edge="1">
          <mxGeometry relative="1" as="geometry" />
        </mxCell>
        <mxCell id="2eCOgMGtBzsQvOvCT4ah-42" value="1/1" style="edgeLabel;html=1;align=center;verticalAlign=middle;resizable=0;points=[];labelBackgroundColor=none;fontColor=#393C56;" parent="2eCOgMGtBzsQvOvCT4ah-41" vertex="1" connectable="0">
          <mxGeometry x="-0.8513" y="-4" relative="1" as="geometry">
            <mxPoint as="offset" />
          </mxGeometry>
        </mxCell>
        <mxCell id="2eCOgMGtBzsQvOvCT4ah-43" value="0/N" style="edgeLabel;html=1;align=center;verticalAlign=middle;resizable=0;points=[];labelBackgroundColor=none;fontColor=#393C56;" parent="2eCOgMGtBzsQvOvCT4ah-41" vertex="1" connectable="0">
          <mxGeometry x="0.8257" y="-1" relative="1" as="geometry">
            <mxPoint as="offset" />
          </mxGeometry>
        </mxCell>
        <mxCell id="WIyWlLk6GJQsqaUBKTNV-12" value="ITINERARIES" style="rounded=1;whiteSpace=wrap;html=1;fontSize=12;glass=0;strokeWidth=1;shadow=0;labelBackgroundColor=none;fillColor=#F2CC8F;strokeColor=#E07A5F;fontColor=#393C56;" parent="WIyWlLk6GJQsqaUBKTNV-1" vertex="1">
          <mxGeometry x="-790" y="212.5" width="120" height="40" as="geometry" />
        </mxCell>
        <mxCell id="2eCOgMGtBzsQvOvCT4ah-4" value="AIRPLANES" style="rounded=1;whiteSpace=wrap;html=1;fontSize=12;glass=0;strokeWidth=1;shadow=0;labelBackgroundColor=none;fillColor=#F2CC8F;strokeColor=#E07A5F;fontColor=#393C56;" parent="WIyWlLk6GJQsqaUBKTNV-1" vertex="1">
          <mxGeometry x="-138.12" y="212.5" width="120" height="40" as="geometry" />
        </mxCell>
        <mxCell id="2eCOgMGtBzsQvOvCT4ah-5" value="SERVICES" style="rounded=1;whiteSpace=wrap;html=1;fontSize=12;glass=0;strokeWidth=1;shadow=0;labelBackgroundColor=none;fillColor=#F2CC8F;strokeColor=#E07A5F;fontColor=#393C56;" parent="WIyWlLk6GJQsqaUBKTNV-1" vertex="1">
          <mxGeometry x="-392.25" y="650" width="120" height="40" as="geometry" />
        </mxCell>
        <mxCell id="2eCOgMGtBzsQvOvCT4ah-28" style="rounded=0;orthogonalLoop=1;jettySize=auto;html=1;exitX=1;exitY=0.5;exitDx=0;exitDy=0;entryX=0;entryY=0.5;entryDx=0;entryDy=0;labelBackgroundColor=none;fontColor=default;endArrow=none;endFill=0;strokeColor=#E07A5F;" parent="WIyWlLk6GJQsqaUBKTNV-1" source="2eCOgMGtBzsQvOvCT4ah-6" target="2eCOgMGtBzsQvOvCT4ah-7" edge="1">
          <mxGeometry relative="1" as="geometry" />
        </mxCell>
        <mxCell id="2eCOgMGtBzsQvOvCT4ah-30" value="1/1" style="edgeLabel;html=1;align=center;verticalAlign=middle;resizable=0;points=[];labelBackgroundColor=none;fontColor=#393C56;" parent="2eCOgMGtBzsQvOvCT4ah-28" vertex="1" connectable="0">
          <mxGeometry x="0.8017" y="2" relative="1" as="geometry">
            <mxPoint as="offset" />
          </mxGeometry>
        </mxCell>
        <mxCell id="2eCOgMGtBzsQvOvCT4ah-31" value="0/N" style="edgeLabel;html=1;align=center;verticalAlign=middle;resizable=0;points=[];labelBackgroundColor=none;fontColor=#393C56;" parent="2eCOgMGtBzsQvOvCT4ah-28" vertex="1" connectable="0">
          <mxGeometry x="-0.8055" y="3" relative="1" as="geometry">
            <mxPoint x="-2" as="offset" />
          </mxGeometry>
        </mxCell>
        <mxCell id="2eCOgMGtBzsQvOvCT4ah-44" style="edgeStyle=orthogonalEdgeStyle;rounded=0;orthogonalLoop=1;jettySize=auto;html=1;exitX=0.5;exitY=0;exitDx=0;exitDy=0;entryX=0.5;entryY=1;entryDx=0;entryDy=0;labelBackgroundColor=none;fontColor=default;endArrow=none;endFill=0;strokeColor=#E07A5F;" parent="WIyWlLk6GJQsqaUBKTNV-1" source="2eCOgMGtBzsQvOvCT4ah-6" target="WIyWlLk6GJQsqaUBKTNV-11" edge="1">
          <mxGeometry relative="1" as="geometry">
            <mxPoint x="-351.25" y="286" as="targetPoint" />
          </mxGeometry>
        </mxCell>
        <mxCell id="2eCOgMGtBzsQvOvCT4ah-45" value="1/1" style="edgeLabel;html=1;align=center;verticalAlign=middle;resizable=0;points=[];labelBackgroundColor=none;fontColor=#393C56;" parent="2eCOgMGtBzsQvOvCT4ah-44" vertex="1" connectable="0">
          <mxGeometry x="0.8916" y="1" relative="1" as="geometry">
            <mxPoint y="8" as="offset" />
          </mxGeometry>
        </mxCell>
        <mxCell id="2eCOgMGtBzsQvOvCT4ah-48" value="0/N" style="edgeLabel;html=1;align=center;verticalAlign=middle;resizable=0;points=[];labelBackgroundColor=none;fontColor=#393C56;" parent="2eCOgMGtBzsQvOvCT4ah-44" vertex="1" connectable="0">
          <mxGeometry x="-0.9286" y="-3" relative="1" as="geometry">
            <mxPoint y="-11" as="offset" />
          </mxGeometry>
        </mxCell>
        <mxCell id="2eCOgMGtBzsQvOvCT4ah-59" style="edgeStyle=orthogonalEdgeStyle;rounded=0;orthogonalLoop=1;jettySize=auto;html=1;exitX=0.5;exitY=1;exitDx=0;exitDy=0;entryX=0.5;entryY=0;entryDx=0;entryDy=0;labelBackgroundColor=none;fontColor=default;endArrow=none;endFill=0;strokeColor=#E07A5F;" parent="WIyWlLk6GJQsqaUBKTNV-1" source="2eCOgMGtBzsQvOvCT4ah-6" target="2eCOgMGtBzsQvOvCT4ah-5" edge="1">
          <mxGeometry relative="1" as="geometry" />
        </mxCell>
        <mxCell id="2eCOgMGtBzsQvOvCT4ah-60" value="0/N" style="edgeLabel;html=1;align=center;verticalAlign=middle;resizable=0;points=[];labelBackgroundColor=none;fontColor=#393C56;" parent="2eCOgMGtBzsQvOvCT4ah-59" vertex="1" connectable="0">
          <mxGeometry x="0.8357" y="-1" relative="1" as="geometry">
            <mxPoint y="-1" as="offset" />
          </mxGeometry>
        </mxCell>
        <mxCell id="2eCOgMGtBzsQvOvCT4ah-61" value="0/N" style="edgeLabel;html=1;align=center;verticalAlign=middle;resizable=0;points=[];labelBackgroundColor=none;fontColor=#393C56;" parent="2eCOgMGtBzsQvOvCT4ah-59" vertex="1" connectable="0">
          <mxGeometry x="-0.8786" y="-2" relative="1" as="geometry">
            <mxPoint y="-1" as="offset" />
          </mxGeometry>
        </mxCell>
        <mxCell id="1g1i9qOu4sJortHsb9D5-1" style="edgeStyle=orthogonalEdgeStyle;orthogonalLoop=1;jettySize=auto;html=1;exitX=0.25;exitY=0;exitDx=0;exitDy=0;entryX=0.5;entryY=1;entryDx=0;entryDy=0;fontSize=12;startSize=8;endSize=8;endArrow=none;endFill=0;labelBackgroundColor=none;strokeColor=#E07A5F;fontColor=default;" parent="WIyWlLk6GJQsqaUBKTNV-1" source="2eCOgMGtBzsQvOvCT4ah-6" target="1g1i9qOu4sJortHsb9D5-0" edge="1">
          <mxGeometry relative="1" as="geometry" />
        </mxCell>
        <mxCell id="1g1i9qOu4sJortHsb9D5-2" value="&lt;font style=&quot;font-size: 11px;&quot;&gt;1/1&lt;/font&gt;" style="edgeLabel;html=1;align=center;verticalAlign=middle;resizable=0;points=[];fontSize=16;labelBackgroundColor=none;fontColor=#393C56;" parent="1g1i9qOu4sJortHsb9D5-1" vertex="1" connectable="0">
          <mxGeometry x="0.8422" y="-3" relative="1" as="geometry">
            <mxPoint x="-3" y="7" as="offset" />
          </mxGeometry>
        </mxCell>
        <mxCell id="1g1i9qOu4sJortHsb9D5-4" value="&lt;font style=&quot;font-size: 11px;&quot;&gt;1/1&lt;/font&gt;" style="edgeLabel;html=1;align=center;verticalAlign=middle;resizable=0;points=[];fontSize=16;labelBackgroundColor=none;fontColor=#393C56;" parent="1g1i9qOu4sJortHsb9D5-1" vertex="1" connectable="0">
          <mxGeometry x="-0.7815" relative="1" as="geometry">
            <mxPoint as="offset" />
          </mxGeometry>
        </mxCell>
        <mxCell id="2eCOgMGtBzsQvOvCT4ah-6" value="BOOKS" style="rounded=1;whiteSpace=wrap;html=1;fontSize=12;glass=0;strokeWidth=1;shadow=0;labelBackgroundColor=none;fillColor=#F2CC8F;strokeColor=#E07A5F;fontColor=#393C56;" parent="WIyWlLk6GJQsqaUBKTNV-1" vertex="1">
          <mxGeometry x="-391.25" y="410" width="120" height="40" as="geometry" />
        </mxCell>
        <mxCell id="OlYe6v1druSpTASiOuSP-1" style="edgeStyle=orthogonalEdgeStyle;rounded=0;orthogonalLoop=1;jettySize=auto;html=1;exitX=0.5;exitY=1;exitDx=0;exitDy=0;entryX=0.5;entryY=0;entryDx=0;entryDy=0;endArrow=none;endFill=0;labelBackgroundColor=none;fontColor=default;strokeColor=#E07A5F;" parent="WIyWlLk6GJQsqaUBKTNV-1" source="2eCOgMGtBzsQvOvCT4ah-7" target="OlYe6v1druSpTASiOuSP-0" edge="1">
          <mxGeometry relative="1" as="geometry" />
        </mxCell>
        <mxCell id="OlYe6v1druSpTASiOuSP-2" value="1/1" style="edgeLabel;html=1;align=center;verticalAlign=middle;resizable=0;points=[];labelBackgroundColor=none;fontColor=#393C56;" parent="OlYe6v1druSpTASiOuSP-1" vertex="1" connectable="0">
          <mxGeometry x="-0.88" y="-1" relative="1" as="geometry">
            <mxPoint as="offset" />
          </mxGeometry>
        </mxCell>
        <mxCell id="OlYe6v1druSpTASiOuSP-3" value="0/1" style="edgeLabel;html=1;align=center;verticalAlign=middle;resizable=0;points=[];labelBackgroundColor=none;fontColor=#393C56;" parent="OlYe6v1druSpTASiOuSP-1" vertex="1" connectable="0">
          <mxGeometry x="0.81" y="-1" relative="1" as="geometry">
            <mxPoint as="offset" />
          </mxGeometry>
        </mxCell>
        <mxCell id="2eCOgMGtBzsQvOvCT4ah-7" value="USERS" style="rounded=1;whiteSpace=wrap;html=1;fontSize=12;glass=0;strokeWidth=1;shadow=0;arcSize=19;labelBackgroundColor=none;fillColor=#F2CC8F;strokeColor=#E07A5F;fontColor=#393C56;" parent="WIyWlLk6GJQsqaUBKTNV-1" vertex="1">
          <mxGeometry x="-138.12" y="410" width="120" height="40" as="geometry" />
        </mxCell>
        <mxCell id="2eCOgMGtBzsQvOvCT4ah-23" style="edgeStyle=orthogonalEdgeStyle;rounded=0;orthogonalLoop=1;jettySize=auto;html=1;exitX=0.5;exitY=1;exitDx=0;exitDy=0;entryX=0.5;entryY=0;entryDx=0;entryDy=0;labelBackgroundColor=none;fontColor=default;endArrow=none;endFill=0;strokeColor=#E07A5F;" parent="WIyWlLk6GJQsqaUBKTNV-1" source="2eCOgMGtBzsQvOvCT4ah-8" target="2eCOgMGtBzsQvOvCT4ah-9" edge="1">
          <mxGeometry relative="1" as="geometry" />
        </mxCell>
        <mxCell id="2eCOgMGtBzsQvOvCT4ah-24" value="1/1" style="edgeLabel;html=1;align=center;verticalAlign=middle;resizable=0;points=[];labelBackgroundColor=none;fontColor=#393C56;" parent="2eCOgMGtBzsQvOvCT4ah-23" vertex="1" connectable="0">
          <mxGeometry x="-0.6839" relative="1" as="geometry">
            <mxPoint as="offset" />
          </mxGeometry>
        </mxCell>
        <mxCell id="2eCOgMGtBzsQvOvCT4ah-25" value="1/1" style="edgeLabel;html=1;align=center;verticalAlign=middle;resizable=0;points=[];labelBackgroundColor=none;fontColor=#393C56;" parent="2eCOgMGtBzsQvOvCT4ah-23" vertex="1" connectable="0">
          <mxGeometry x="0.8418" y="1" relative="1" as="geometry">
            <mxPoint as="offset" />
          </mxGeometry>
        </mxCell>
        <mxCell id="2eCOgMGtBzsQvOvCT4ah-52" style="edgeStyle=orthogonalEdgeStyle;rounded=0;orthogonalLoop=1;jettySize=auto;html=1;exitX=1;exitY=0.5;exitDx=0;exitDy=0;entryX=0;entryY=0.5;entryDx=0;entryDy=0;labelBackgroundColor=none;fontColor=default;endArrow=none;endFill=0;strokeColor=#E07A5F;" parent="WIyWlLk6GJQsqaUBKTNV-1" source="2eCOgMGtBzsQvOvCT4ah-8" target="2eCOgMGtBzsQvOvCT4ah-6" edge="1">
          <mxGeometry relative="1" as="geometry">
            <mxPoint x="-481.25" y="430" as="targetPoint" />
          </mxGeometry>
        </mxCell>
        <mxCell id="2eCOgMGtBzsQvOvCT4ah-63" value="1/N" style="edgeLabel;html=1;align=center;verticalAlign=middle;resizable=0;points=[];labelBackgroundColor=none;fontColor=#393C56;" parent="2eCOgMGtBzsQvOvCT4ah-52" vertex="1" connectable="0">
          <mxGeometry x="-0.6907" relative="1" as="geometry">
            <mxPoint as="offset" />
          </mxGeometry>
        </mxCell>
        <mxCell id="2eCOgMGtBzsQvOvCT4ah-78" value="1/2" style="edgeLabel;html=1;align=center;verticalAlign=middle;resizable=0;points=[];labelBackgroundColor=none;fontColor=#393C56;" parent="2eCOgMGtBzsQvOvCT4ah-52" vertex="1" connectable="0">
          <mxGeometry x="0.8313" y="1" relative="1" as="geometry">
            <mxPoint as="offset" />
          </mxGeometry>
        </mxCell>
        <mxCell id="2eCOgMGtBzsQvOvCT4ah-8" value="PASSENGERS" style="rounded=1;whiteSpace=wrap;html=1;fontSize=12;glass=0;strokeWidth=1;shadow=0;labelBackgroundColor=none;fillColor=#F2CC8F;strokeColor=#E07A5F;fontColor=#393C56;" parent="WIyWlLk6GJQsqaUBKTNV-1" vertex="1">
          <mxGeometry x="-790" y="410" width="120" height="40" as="geometry" />
        </mxCell>
        <mxCell id="2eCOgMGtBzsQvOvCT4ah-9" value="ADDITIONAL_INFORMATIONS" style="rounded=1;whiteSpace=wrap;html=1;fontSize=12;glass=0;strokeWidth=1;shadow=0;labelBackgroundColor=none;fillColor=#F2CC8F;strokeColor=#E07A5F;fontColor=#393C56;" parent="WIyWlLk6GJQsqaUBKTNV-1" vertex="1">
          <mxGeometry x="-820" y="650" width="180" height="40" as="geometry" />
        </mxCell>
        <mxCell id="2eCOgMGtBzsQvOvCT4ah-17" value="vuelo único" style="text;html=1;strokeColor=none;fillColor=none;align=center;verticalAlign=middle;whiteSpace=wrap;rounded=0;labelBackgroundColor=none;fontColor=#393C56;" parent="WIyWlLk6GJQsqaUBKTNV-1" vertex="1">
          <mxGeometry x="-351.25" y="252.5" width="116" height="30" as="geometry" />
        </mxCell>
        <mxCell id="2eCOgMGtBzsQvOvCT4ah-27" value="cada vuelo tiene un viaje" style="text;html=1;strokeColor=none;fillColor=none;align=center;verticalAlign=middle;whiteSpace=wrap;rounded=0;labelBackgroundColor=none;fontColor=#393C56;" parent="WIyWlLk6GJQsqaUBKTNV-1" vertex="1">
          <mxGeometry x="-790" y="268.5" width="120" height="40" as="geometry" />
        </mxCell>
        <mxCell id="2eCOgMGtBzsQvOvCT4ah-36" style="edgeStyle=orthogonalEdgeStyle;rounded=0;orthogonalLoop=1;jettySize=auto;html=1;exitX=0.5;exitY=1;exitDx=0;exitDy=0;entryX=0.5;entryY=0;entryDx=0;entryDy=0;labelBackgroundColor=none;fontColor=default;endArrow=none;endFill=0;strokeColor=#E07A5F;" parent="WIyWlLk6GJQsqaUBKTNV-1" edge="1">
          <mxGeometry relative="1" as="geometry">
            <mxPoint x="-690" y="50.5" as="sourcePoint" />
            <mxPoint x="-690" y="212.5" as="targetPoint" />
          </mxGeometry>
        </mxCell>
        <mxCell id="2eCOgMGtBzsQvOvCT4ah-37" value="0/N" style="edgeLabel;html=1;align=center;verticalAlign=middle;resizable=0;points=[];labelBackgroundColor=none;fontColor=#393C56;" parent="2eCOgMGtBzsQvOvCT4ah-36" vertex="1" connectable="0">
          <mxGeometry x="0.6366" y="1" relative="1" as="geometry">
            <mxPoint as="offset" />
          </mxGeometry>
        </mxCell>
        <mxCell id="2eCOgMGtBzsQvOvCT4ah-38" value="1/1" style="edgeLabel;html=1;align=center;verticalAlign=middle;resizable=0;points=[];labelBackgroundColor=none;fontColor=#393C56;" parent="2eCOgMGtBzsQvOvCT4ah-36" vertex="1" connectable="0">
          <mxGeometry x="-0.8144" y="-2" relative="1" as="geometry">
            <mxPoint as="offset" />
          </mxGeometry>
        </mxCell>
        <mxCell id="2eCOgMGtBzsQvOvCT4ah-40" value="como destino" style="edgeLabel;html=1;align=center;verticalAlign=middle;resizable=0;points=[];labelBackgroundColor=none;fontColor=#393C56;" parent="2eCOgMGtBzsQvOvCT4ah-36" vertex="1" connectable="0">
          <mxGeometry x="-0.1326" y="-2" relative="1" as="geometry">
            <mxPoint as="offset" />
          </mxGeometry>
        </mxCell>
        <mxCell id="2eCOgMGtBzsQvOvCT4ah-47" value="la ida y la vuelta son 2 reservas distintas" style="text;html=1;strokeColor=none;fillColor=none;align=center;verticalAlign=middle;whiteSpace=wrap;rounded=0;labelBackgroundColor=none;fontColor=#393C56;" parent="WIyWlLk6GJQsqaUBKTNV-1" vertex="1">
          <mxGeometry x="-290" y="320" width="116" height="30" as="geometry" />
        </mxCell>
        <mxCell id="2eCOgMGtBzsQvOvCT4ah-54" value="aquí añadimos de paso los servicios individuales" style="text;html=1;strokeColor=none;fillColor=none;align=center;verticalAlign=middle;whiteSpace=wrap;rounded=0;labelBackgroundColor=none;fontColor=#393C56;" parent="WIyWlLk6GJQsqaUBKTNV-1" vertex="1">
          <mxGeometry x="-631.25" y="440" width="118" height="40" as="geometry" />
        </mxCell>
        <mxCell id="2eCOgMGtBzsQvOvCT4ah-73" value="" style="endArrow=none;html=1;rounded=0;entryX=1;entryY=1;entryDx=0;entryDy=0;exitX=0;exitY=1;exitDx=0;exitDy=0;labelBackgroundColor=none;fontColor=default;strokeColor=#E07A5F;edgeStyle=orthogonalEdgeStyle;" parent="WIyWlLk6GJQsqaUBKTNV-1" source="2eCOgMGtBzsQvOvCT4ah-6" target="2eCOgMGtBzsQvOvCT4ah-8" edge="1">
          <mxGeometry width="50" height="50" relative="1" as="geometry">
            <mxPoint x="-441.25" y="470" as="sourcePoint" />
            <mxPoint x="-151.25" y="560" as="targetPoint" />
            <Array as="points">
              <mxPoint x="-391" y="589" />
              <mxPoint x="-670" y="589" />
            </Array>
          </mxGeometry>
        </mxCell>
        <mxCell id="2eCOgMGtBzsQvOvCT4ah-74" value="0/N" style="edgeLabel;html=1;align=center;verticalAlign=middle;resizable=0;points=[];labelBackgroundColor=none;fontColor=#393C56;" parent="2eCOgMGtBzsQvOvCT4ah-73" vertex="1" connectable="0">
          <mxGeometry x="0.8884" y="-2" relative="1" as="geometry">
            <mxPoint as="offset" />
          </mxGeometry>
        </mxCell>
        <mxCell id="2eCOgMGtBzsQvOvCT4ah-75" value="0/2" style="edgeLabel;html=1;align=center;verticalAlign=middle;resizable=0;points=[];labelBackgroundColor=none;fontColor=#393C56;" parent="2eCOgMGtBzsQvOvCT4ah-73" vertex="1" connectable="0">
          <mxGeometry x="-0.9239" y="-3" relative="1" as="geometry">
            <mxPoint as="offset" />
          </mxGeometry>
        </mxCell>
        <mxCell id="2eCOgMGtBzsQvOvCT4ah-76" value="" style="endArrow=none;html=1;rounded=0;exitX=0;exitY=0.5;exitDx=0;exitDy=0;labelBackgroundColor=none;fontColor=default;strokeColor=#E07A5F;edgeStyle=orthogonalEdgeStyle;" parent="WIyWlLk6GJQsqaUBKTNV-1" source="2eCOgMGtBzsQvOvCT4ah-5" edge="1">
          <mxGeometry width="50" height="50" relative="1" as="geometry">
            <mxPoint x="-201.25" y="610" as="sourcePoint" />
            <mxPoint x="-541" y="589" as="targetPoint" />
          </mxGeometry>
        </mxCell>
        <mxCell id="2eCOgMGtBzsQvOvCT4ah-77" value="0/N" style="edgeLabel;html=1;align=center;verticalAlign=middle;resizable=0;points=[];labelBackgroundColor=none;fontColor=#393C56;" parent="2eCOgMGtBzsQvOvCT4ah-76" vertex="1" connectable="0">
          <mxGeometry x="-0.8878" y="-2" relative="1" as="geometry">
            <mxPoint as="offset" />
          </mxGeometry>
        </mxCell>
        <mxCell id="OlYe6v1druSpTASiOuSP-0" value="USER_TEMP_IDS" style="rounded=1;whiteSpace=wrap;html=1;fontSize=12;glass=0;strokeWidth=1;shadow=0;arcSize=19;labelBackgroundColor=none;fillColor=#F2CC8F;strokeColor=#E07A5F;fontColor=#393C56;" parent="WIyWlLk6GJQsqaUBKTNV-1" vertex="1">
          <mxGeometry x="-138.12" y="650" width="120" height="40" as="geometry" />
        </mxCell>
        <mxCell id="1g1i9qOu4sJortHsb9D5-0" value="PRIMARY_CONTACT_INFORMATIONS" style="rounded=1;whiteSpace=wrap;html=1;fontSize=12;glass=0;strokeWidth=1;shadow=0;labelBackgroundColor=none;fillColor=#F2CC8F;strokeColor=#E07A5F;fontColor=#393C56;" parent="WIyWlLk6GJQsqaUBKTNV-1" vertex="1">
          <mxGeometry x="-600" y="290" width="230" height="30" as="geometry" />
        </mxCell>
        <mxCell id="1g1i9qOu4sJortHsb9D5-8" style="edgeStyle=orthogonalEdgeStyle;rounded=0;orthogonalLoop=1;jettySize=auto;html=1;exitX=0.5;exitY=0;exitDx=0;exitDy=0;strokeColor=#E07A5F;fontSize=12;fontColor=#393C56;startSize=8;endSize=8;fillColor=#F2CC8F;entryX=0.75;entryY=1;entryDx=0;entryDy=0;endArrow=none;endFill=0;" parent="WIyWlLk6GJQsqaUBKTNV-1" source="1g1i9qOu4sJortHsb9D5-6" target="2eCOgMGtBzsQvOvCT4ah-6" edge="1">
          <mxGeometry relative="1" as="geometry" />
        </mxCell>
        <mxCell id="1g1i9qOu4sJortHsb9D5-9" value="&lt;font style=&quot;font-size: 11px;&quot;&gt;1/1&lt;/font&gt;" style="edgeLabel;html=1;align=center;verticalAlign=middle;resizable=0;points=[];fontSize=16;fontColor=#393C56;" parent="1g1i9qOu4sJortHsb9D5-8" vertex="1" connectable="0">
          <mxGeometry x="0.8401" y="-1" relative="1" as="geometry">
            <mxPoint as="offset" />
          </mxGeometry>
        </mxCell>
        <mxCell id="1g1i9qOu4sJortHsb9D5-10" value="&lt;font style=&quot;font-size: 11px;&quot;&gt;1/N&lt;/font&gt;" style="edgeLabel;html=1;align=center;verticalAlign=middle;resizable=0;points=[];fontSize=16;fontColor=#393C56;" parent="1g1i9qOu4sJortHsb9D5-8" vertex="1" connectable="0">
          <mxGeometry x="-0.8501" y="2" relative="1" as="geometry">
            <mxPoint as="offset" />
          </mxGeometry>
        </mxCell>
        <mxCell id="1g1i9qOu4sJortHsb9D5-6" value="INVOICES" style="rounded=1;whiteSpace=wrap;html=1;fontSize=12;glass=0;strokeWidth=1;shadow=0;labelBackgroundColor=none;fillColor=#F2CC8F;strokeColor=#E07A5F;fontColor=#393C56;" parent="WIyWlLk6GJQsqaUBKTNV-1" vertex="1">
          <mxGeometry x="-240" y="529" width="120" height="40" as="geometry" />
        </mxCell>
      </root>
    </mxGraphModel>
  </diagram>
</mxfile>
